HIERARCHY
ROOT Hips
{
    OFFSET 0.000000 0.000000 0.000000
    CHANNELS 6 Xposition Yposition Zposition Zrotation Xrotation Yrotation
    JOINT Spine
    {
        OFFSET -0.000000 7.236184 0.000000
        CHANNELS 3 Zrotation Xrotation Yrotation
        JOINT Spine1
        {
            OFFSET -0.000000 20.420147 0.000000
            CHANNELS 3 Zrotation Xrotation Yrotation
            JOINT Neck
            {
                OFFSET -0.000000 20.336288 1.848754
                CHANNELS 3 Zrotation Xrotation Yrotation
                JOINT Head
                {
                    OFFSET -0.000000 12.354461 -1.764923
                    CHANNELS 3 Zrotation Xrotation Yrotation
                    End Site
                    {
                        OFFSET -0.000000 22.061537 0.000000
                    }
                }
            }
            JOINT LeftShoulder
            {
                OFFSET 3.573296 18.396038 -0.314103
                CHANNELS 3 Zrotation Xrotation Yrotation
                JOINT LeftArm
                {
                    OFFSET 10.880760 0.000000 0.000000
                    CHANNELS 3 Zrotation Xrotation Yrotation
                    JOINT LeftForeArm
                    {
                        OFFSET 27.185530 0.000000 0.000000
                        CHANNELS 3 Zrotation Xrotation Yrotation
                        JOINT LeftHand
                        {
                            OFFSET 27.825975 0.000000 0.000000
                            CHANNELS 3 Zrotation Xrotation Yrotation
                            End Site
                            {
                                OFFSET 13.236923 0.000000 0.000000
                            }
                        }
                    }
                }
            }
            JOINT RightShoulder
            {
                OFFSET -3.474926 18.396038 -0.314103
                CHANNELS 3 Zrotation Xrotation Yrotation
                JOINT RightArm
                {
                    OFFSET -10.880760 0.000000 0.000000
                    CHANNELS 3 Zrotation Xrotation Yrotation
                    JOINT RightForeArm
                    {
                        OFFSET -27.185530 0.000000 0.000000
                        CHANNELS 3 Zrotation Xrotation Yrotation
                        JOINT RightHand
                        {
                            OFFSET -27.825975 0.000000 0.000000
                            CHANNELS 3 Zrotation Xrotation Yrotation
                            End Site
                            {
                                OFFSET -13.236923 0.000000 0.000000
                            }
                        }
                    }
                }
            }
        }
    }
    JOINT LeftUpLeg
    {
        OFFSET 8.824615 0.000000 0.000000
        CHANNELS 3 Zrotation Xrotation Yrotation
        JOINT LeftLeg
        {
            OFFSET -0.000000 -35.111282 0.000000
            CHANNELS 3 Zrotation Xrotation Yrotation
            JOINT LeftFoot
            {
                OFFSET -0.000000 -42.324711 0.000000
                CHANNELS 3 Zrotation Xrotation Yrotation
                JOINT LeftToeBase
                {
                    OFFSET -0.000000 -5.735999 13.236923
                    CHANNELS 3 Zrotation Xrotation Yrotation
                    End Site
                    {
                        OFFSET -0.000000 0.000000 3.529846
                    }
                }
            }
        }
    }
    JOINT RightUpLeg
    {
        OFFSET -8.824615 0.000000 0.000000
        CHANNELS 3 Zrotation Xrotation Yrotation
        JOINT RightLeg
        {
            OFFSET -0.000000 -35.111282 0.000000
            CHANNELS 3 Zrotation Xrotation Yrotation
            JOINT RightFoot
            {
                OFFSET -0.000000 -42.324711 0.000000
                CHANNELS 3 Zrotation Xrotation Yrotation
                JOINT RightToeBase
                {
                    OFFSET -0.000000 -5.735999 13.236923
                    CHANNELS 3 Zrotation Xrotation Yrotation
                    End Site
                    {
                        OFFSET -0.000000 0.000000 3.529846
                    }
                }
            }
        }
    }
}
MOTION
Frames:    5
Frame Time:    0.008333
-5.380071    83.182541    106.670258    1.196150    -23.828178    -174.190369    -2.440579    -6.209850    1.165207    -1.148190    13.454522    1.433046    4.707788    15.253037    -5.136529    13.201210    18.234409    -5.643101    -0.141185    17.576406    -3.779753    -36.365158    48.259766    -44.281063    -1.971875    -0.451407    -9.340167    26.875912    -0.133470    2.004775    5.856578    18.381931    -3.725822    37.107731    46.697086    40.065426    -10.777611    -18.162788    77.161736    -0.282240    -9.767945    -7.728295    1.648154    -27.800627    -4.426987    -1.230809    9.425420    -1.870974    -1.071762    -3.483831    -8.471746    -1.040765    0.613924    1.152378    -3.582726    -21.396883    1.901531    3.260121    0.455267    2.672057    -1.017692    -0.405485    -12.514145    0.763686    0.972873    -0.824894
-5.396914    83.178497    106.659042    1.171200    -23.754698    -174.221619    -2.462593    -6.275742    1.167560    -1.126535    13.441984    1.435326    4.691144    15.258972    -5.140759    13.271813    18.298044    -5.656240    -0.142569    17.588961    -3.786720    -36.376621    48.253235    -44.276306    -1.967753    -0.371255    -9.342407    26.839066    -0.060658    1.976074    5.862986    18.373899    -3.746798    37.152180    46.649048    40.115589    -11.026505    -18.058746    76.043922    -0.454526    -9.625416    -7.281943    1.638775    -27.703239    -4.404347    -1.242442    9.409899    -1.869687    -1.072046    -3.499319    -8.467920    -1.037930    0.622946    1.149221    -3.601983    -21.323183    1.884380    3.264503    0.469569    2.689310    -1.010663    -0.421827    -12.498899    0.763056    0.965092    -0.824222
-5.413981    83.174324    106.644669    1.147928    -23.674017    -174.252655    -2.481473    -6.343233    1.169895    -1.105695    13.429186    1.437624    4.678984    15.263189    -5.145423    13.338273    18.357332    -5.669424    -0.143229    17.601294    -3.792403    -36.392384    48.245815    -44.268490    -1.962990    -0.296626    -9.344344    26.798738    0.007369    1.949337    5.871392    18.363262    -3.765678    37.200714    46.603485    40.158779    -11.262240    -17.944029    74.899582    -0.613584    -9.493402    -6.814884    1.631704    -27.596231    -4.376576    -1.253095    9.393669    -1.870337    -1.074534    -3.516887    -8.466765    -1.035624    0.632494    1.146648    -3.618361    -21.240076    1.867266    3.268599    0.483622    2.706020    -1.003571    -0.440035    -12.482532    0.762155    0.955101    -0.823261
-5.431420    83.170013    106.626961    1.126160    -23.585621    -174.283630    -2.497268    -6.412920    1.172279    -1.085444    13.415979    1.439905    4.670991    15.265403    -5.150692    13.401154    18.413017    -5.682916    -0.143485    17.613287    -3.796937    -36.413269    48.237255    -44.256588    -1.957670    -0.228910    -9.345887    26.754429    0.068756    1.924740    5.881674    18.350237    -3.782168    37.254848    46.558491    40.192909    -11.479725    -17.817335    73.728172    -0.761847    -9.373521    -6.328415    1.626395    -27.478924    -4.342864    -1.262153    9.376670    -1.873161    -1.079567    -3.536502    -8.468932    -1.033891    0.643144    1.144707    -3.632073    -21.146976    1.849930    3.272531    0.497578    2.722390    -0.996362    -0.460328    -12.464970    0.760994    0.942836    -0.822020
-5.449355    83.165550    106.605804    1.105716    -23.489059    -174.314560    -2.510020    -6.485053    1.174706    -1.065728    13.401983    1.442127    4.666812    15.265503    -5.156745    13.461319    18.464882    -5.696916    -0.143345    17.624964    -3.799837    -36.439552    48.227112    -44.240387    -1.952047    -0.169968    -9.347228    26.705368    0.122114    1.902648    5.893905    18.334888    -3.796475    37.315220    46.512558    40.216187    -11.673571    -17.677555    72.530899    -0.901982    -9.267545    -5.825631    1.622367    -27.350895    -4.303020    -1.269026    9.359324    -1.878098    -1.087703    -3.558487    -8.474840    -1.032634    0.654655    1.143292    -3.643457    -21.043377    1.831883    3.276370    0.511649    2.739076    -0.988896    -0.482963    -12.446563    0.759642    0.927561    -0.820577
